<svg width="12" height="14" viewBox="0 0 12 14" fill="none" xmlns="http://www.w3.org/2000/svg">
<path d="M1.63 9.87C1.42333 9.87 1.22667 9.84 1.04 9.78C0.853333 9.72667 0.693333 9.60667 0.56 9.42C0.626667 9.1 0.706667 8.75667 0.8 8.39C0.9 8.01667 1.00667 7.63667 1.12 7.25C1.23333 6.85667 1.34667 6.47333 1.46 6.1C1.58 5.72 1.69333 5.36667 1.8 5.04C1.90667 4.71333 2.00333 4.42667 2.09 4.18C2.17667 3.93333 2.24333 3.74667 2.29 3.62C2.31 3.56667 2.34333 3.49 2.39 3.39C2.43667 3.28333 2.49333 3.17667 2.56 3.07C2.62667 2.96333 2.70333 2.87333 2.79 2.8C2.87667 2.72 2.97 2.68 3.07 2.68C3.16333 2.68 3.25667 2.71333 3.35 2.78C3.14333 3.26 2.93333 3.79 2.72 4.37C2.51333 4.95 2.31333 5.55 2.12 6.17C1.92667 6.78333 1.75 7.38333 1.59 7.97C1.43 8.55667 1.29667 9.09 1.19 9.57C1.28333 9.58333 1.36 9.59333 1.42 9.6C1.48667 9.60667 1.55333 9.61 1.62 9.61C2.04667 9.61 2.45667 9.51 2.85 9.31C3.25 9.11667 3.62 8.85 3.96 8.51C4.30667 8.16333 4.61 7.77 4.87 7.33C5.13 6.88333 5.33 6.41333 5.47 5.92C5.61667 5.42 5.69 4.92333 5.69 4.43C5.69 3.89 5.60333 3.44667 5.43 3.1C5.25667 2.74667 5.01667 2.48667 4.71 2.32C4.40333 2.15333 4.04667 2.07 3.64 2.07C3.20667 2.07 2.81667 2.15667 2.47 2.33C2.12333 2.50333 1.85 2.73667 1.65 3.03C1.45 3.32333 1.35 3.65333 1.35 4.02C1.35 4.1 1.35333 4.17 1.36 4.23C1.37333 4.29 1.38667 4.34333 1.4 4.39C1.18 4.39 1.02333 4.33667 0.93 4.23C0.843333 4.11667 0.8 3.98333 0.8 3.83C0.8 3.59667 0.88 3.36333 1.04 3.13C1.20667 2.89 1.43333 2.67 1.72 2.47C2.01333 2.27 2.35 2.11 2.73 1.99C3.11 1.86333 3.51333 1.8 3.94 1.8C4.54 1.8 5.02 1.92333 5.38 2.17C5.74667 2.41 6.01333 2.73667 6.18 3.15C6.34667 3.56333 6.43 4.02667 6.43 4.54C6.43 5.12 6.34 5.67667 6.16 6.21C5.98 6.73667 5.73 7.22333 5.41 7.67C5.09667 8.11 4.73667 8.49667 4.33 8.83C3.92333 9.15667 3.48667 9.41 3.02 9.59C2.56 9.77667 2.09667 9.87 1.63 9.87Z" fill="#9F5A34"/>
<path d="M7.19 12.87C6.71667 12.87 6.33333 12.75 6.04 12.51C5.75333 12.2767 5.54333 11.9733 5.41 11.6C5.28333 11.2267 5.22 10.8367 5.22 10.43C5.22 9.90333 5.3 9.37333 5.46 8.84C5.62 8.30667 5.83667 7.8 6.11 7.32C6.39 6.83333 6.70667 6.40333 7.06 6.03C7.41333 5.65 7.78333 5.35333 8.17 5.14C8.56333 4.92 8.95 4.81 9.33 4.81C9.60333 4.81 9.82333 4.87667 9.99 5.01C10.1633 5.13667 10.25 5.35667 10.25 5.67C10.25 5.86333 10.2167 6.08333 10.15 6.33C10.0833 6.57 9.99333 6.80333 9.88 7.03C9.76667 7.25 9.64 7.43333 9.5 7.58C9.36667 7.72667 9.23 7.8 9.09 7.8C9.03667 7.8 8.98 7.78333 8.92 7.75C8.86667 7.71667 8.82 7.65667 8.78 7.57C8.88 7.45667 8.99 7.31667 9.11 7.15C9.23667 6.97667 9.35667 6.79667 9.47 6.61C9.58333 6.41667 9.67333 6.23 9.74 6.05C9.81333 5.86333 9.85 5.7 9.85 5.56C9.85 5.42667 9.81 5.32 9.73 5.24C9.65667 5.15333 9.53333 5.11 9.36 5.11C9.07333 5.11 8.77333 5.22667 8.46 5.46C8.15333 5.69333 7.85333 6.00667 7.56 6.4C7.27333 6.78667 7.01333 7.22 6.78 7.7C6.54667 8.18 6.36 8.67 6.22 9.17C6.08667 9.67 6.02 10.1467 6.02 10.6C6.02 10.9267 6.06667 11.24 6.16 11.54C6.25333 11.8333 6.40333 12.07 6.61 12.25C6.82333 12.4367 7.09667 12.53 7.43 12.53C7.78333 12.53 8.13333 12.43 8.48 12.23C8.83333 12.03 9.15667 11.7667 9.45 11.44C9.74333 11.1133 9.97667 10.76 10.15 10.38L10.29 10.48C10.07 10.9133 9.80333 11.3133 9.49 11.68C9.17667 12.04 8.82667 12.3267 8.44 12.54C8.05333 12.76 7.63667 12.87 7.19 12.87Z" fill="#9F5A34"/>
</svg>
